<svg xmlns="http://www.w3.org/2000/svg" xmlns:xlink="http://www.w3.org/1999/xlink" width="500" zoomAndPan="magnify" viewBox="0 0 375 374.999991" height="500" preserveAspectRatio="xMidYMid meet" version="1.0"><defs><g/></defs><g fill="#f8f8f8" fill-opacity="1"><g transform="translate(61.939145, 265.375936)"><g><path d="M 80.984375 3.984375 C 66.671875 3.984375 53.722656 1.070312 42.140625 -4.75 C 30.566406 -10.582031 21.382812 -19.25 14.59375 -30.75 C 7.8125 -42.257812 4.421875 -56.347656 4.421875 -73.015625 C 4.421875 -85.703125 6.484375 -96.835938 10.609375 -106.421875 C 14.742188 -116.003906 20.390625 -124.039062 27.546875 -130.53125 C 34.703125 -137.019531 42.960938 -141.882812 52.328125 -145.125 C 61.691406 -148.375 71.609375 -150 82.078125 -150 C 90.484375 -150 98.226562 -149.039062 105.3125 -147.125 C 112.394531 -145.207031 119.035156 -142.554688 125.234375 -139.171875 L 126.109375 -111.953125 L 123.90625 -111.953125 L 112.84375 -129.65625 C 111.363281 -132.457031 109.738281 -135 107.96875 -137.28125 C 106.195312 -139.570312 103.984375 -141.304688 101.328125 -142.484375 C 99.117188 -143.515625 96.941406 -144.285156 94.796875 -144.796875 C 92.660156 -145.316406 89.972656 -145.578125 86.734375 -145.578125 C 78.171875 -145.578125 70.382812 -143.289062 63.375 -138.71875 C 56.375 -134.144531 50.769531 -126.582031 46.5625 -116.03125 C 42.363281 -105.488281 40.265625 -91.078125 40.265625 -72.796875 C 40.265625 -54.648438 42.253906 -40.300781 46.234375 -29.75 C 50.222656 -19.207031 55.644531 -11.6875 62.5 -7.1875 C 69.363281 -2.6875 77.070312 -0.4375 85.625 -0.4375 C 90.34375 -0.4375 94.101562 -0.769531 96.90625 -1.4375 C 99.707031 -2.101562 102.507812 -3.097656 105.3125 -4.421875 C 108.113281 -5.597656 110.25 -7.328125 111.71875 -9.609375 C 113.195312 -11.898438 114.53125 -14.375 115.71875 -17.03125 L 125.453125 -38.71875 L 127.65625 -38.71875 L 127 -7.078125 C 120.800781 -3.835938 113.863281 -1.1875 106.1875 0.875 C 98.519531 2.945312 90.117188 3.984375 80.984375 3.984375 Z M 80.984375 3.984375 "/></g></g></g><g fill="#f8f8f8" fill-opacity="1"><g transform="translate(188.051254, 265.375936)"><g><path d="M 4.875 0 L 4.875 -2.21875 L 9.296875 -3.765625 C 12.242188 -4.648438 14.195312 -5.976562 15.15625 -7.75 C 16.113281 -9.519531 16.59375 -11.878906 16.59375 -14.828125 L 16.59375 -130.765625 C 16.59375 -133.710938 16.078125 -136.070312 15.046875 -137.84375 C 14.015625 -139.613281 12.023438 -141.015625 9.078125 -142.046875 L 4.875 -143.8125 L 4.875 -146.03125 L 58.625 -146.03125 C 80.601562 -146.03125 96.5 -142.007812 106.3125 -133.96875 C 116.125 -125.925781 121.03125 -115.34375 121.03125 -102.21875 C 121.03125 -93.8125 119 -86.101562 114.9375 -79.09375 C 110.882812 -72.09375 104.210938 -66.523438 94.921875 -62.390625 C 85.628906 -58.265625 73.085938 -56.203125 57.296875 -56.203125 L 49.78125 -56.203125 L 49.78125 -15.484375 C 49.78125 -9.734375 52.65625 -5.972656 58.40625 -4.203125 L 65.046875 -2.21875 L 65.046875 0 Z M 49.78125 -60.625 L 58.1875 -60.625 C 65.414062 -60.625 71.316406 -61.800781 75.890625 -64.15625 C 80.460938 -66.519531 83.851562 -70.648438 86.0625 -76.546875 C 88.28125 -82.453125 89.390625 -90.640625 89.390625 -101.109375 C 89.390625 -111.734375 88.171875 -119.992188 85.734375 -125.890625 C 83.296875 -131.785156 79.71875 -135.875 75 -138.15625 C 70.28125 -140.445312 64.378906 -141.59375 57.296875 -141.59375 L 49.78125 -141.59375 Z M 49.78125 -60.625 "/></g></g></g></svg>